<?xml version="1.0" standalone="no"?>
<!DOCTYPE svg PUBLIC "-//W3C//DTD SVG 20010904//EN"
 "http://www.w3.org/TR/2001/REC-SVG-20010904/DTD/svg10.dtd">
<svg version="1.0" xmlns="http://www.w3.org/2000/svg"
 width="238.000000pt" height="147.000000pt" viewBox="0 0 238.000000 147.000000"
 preserveAspectRatio="xMidYMid meet">

<g transform="translate(0.000000,147.000000) scale(0.100000,-0.100000)"
fill="#000000" stroke="none">
<path d="M0 735 l0 -735 1190 0 1190 0 0 735 0 735 -1190 0 -1190 0 0 -735z
m825 598 c96 -50 144 -136 145 -255 0 -71 -2 -78 -20 -78 -28 0 -25 -21 15
-120 41 -101 44 -153 12 -201 -44 -67 -157 -95 -342 -86 -117 6 -192 26 -221
58 -9 10 -27 19 -40 19 -30 0 -71 50 -79 99 -4 22 -4 64 0 94 7 53 6 56 -29
95 -42 46 -38 51 37 59 50 5 54 3 86 -31 41 -43 51 -45 51 -11 0 19 -5 25 -21
25 -21 0 -21 4 -17 88 5 95 20 135 72 190 60 64 113 82 226 79 63 -3 96 -9
125 -24z m596 -339 c29 -14 39 -33 39 -68 0 -43 -78 -93 -161 -103 -27 -3 -49
-9 -49 -12 0 -4 23 -32 50 -63 83 -94 188 -126 217 -68 l13 25 0 -27 c0 -32
-32 -58 -73 -58 -57 0 -143 66 -207 159 l-23 34 -19 -38 c-21 -41 -18 -55 9
-34 15 12 15 11 -1 -13 -19 -28 -56 -39 -56 -15 0 6 9 31 20 55 10 23 17 49
14 57 -4 9 0 15 9 15 8 0 23 22 35 49 22 53 59 85 86 75 20 -8 21 -24 1 -24
-14 0 -84 -85 -85 -102 -1 -27 133 15 177 56 27 25 34 37 29 53 -20 63 -221
53 -298 -15 -23 -19 -23 -48 -1 -61 10 -5 15 -12 11 -16 -10 -10 -48 32 -48
53 0 37 62 83 137 102 46 11 139 3 174 -16z m269 -44 c0 -12 -82 -52 -90 -44
-3 3 2 9 10 14 8 5 24 16 35 24 23 18 45 21 45 6z m-161 -94 c6 -7 9 -21 5
-30 -8 -20 -66 -56 -90 -56 -13 1 -8 7 17 20 38 20 65 47 56 56 -11 11 -68
-31 -89 -64 -23 -38 -18 -62 13 -62 44 0 122 67 142 123 3 9 13 17 22 17 19 0
19 2 -6 -54 -11 -26 -19 -57 -17 -69 3 -20 10 -16 68 39 87 82 156 115 175 84
3 -6 -4 -10 -17 -10 -46 0 -127 -65 -128 -102 0 -31 23 -20 81 38 61 60 91 66
63 13 -8 -17 -14 -42 -12 -57 l3 -27 48 44 c56 52 64 41 8 -13 -47 -46 -83
-47 -91 -2 -5 27 -6 28 -19 12 -26 -31 -69 -48 -91 -36 -11 6 -20 16 -20 22 0
6 -11 1 -24 -11 -31 -29 -68 -25 -76 8 -5 21 -7 22 -18 8 -8 -9 -33 -24 -58
-33 -41 -15 -45 -15 -69 0 -46 30 -24 87 49 131 47 29 59 30 75 11z m-963
-417 c10 -16 -28 -61 -64 -76 -20 -8 -32 -9 -32 -3 0 5 8 10 17 10 20 0 63 38
63 57 0 24 -40 13 -79 -23 -49 -44 -71 -99 -48 -121 23 -23 81 -8 125 31 85
76 130 73 97 -6 -10 -26 21 -23 37 2 7 11 18 20 23 20 6 0 17 15 23 34 17 48
50 86 73 86 30 0 23 -32 -17 -76 -37 -41 -36 -30 3 22 25 34 28 44 13 44 -5 0
-21 -21 -36 -46 -26 -45 -27 -47 -9 -60 15 -12 22 -10 48 12 33 28 52 27 52
-2 0 -13 -10 -22 -32 -29 -18 -5 -33 -15 -33 -23 0 -14 8 -14 55 3 20 7 20 7
0 -10 -29 -23 -69 -16 -73 13 -3 17 -9 22 -25 20 -17 -2 -27 -18 -45 -68 -24
-69 -29 -76 -38 -68 -3 3 6 33 20 67 25 63 23 76 -9 41 -21 -24 -43 -26 -51
-5 -5 12 -9 12 -29 -1 -19 -13 -25 -13 -36 -2 -11 12 -18 11 -48 -4 -46 -23
-76 -23 -101 2 -32 32 -6 100 57 150 28 21 87 27 99 9z m1224 -1 c0 -4 -5 -10
-11 -13 -6 -4 -14 -17 -19 -29 -8 -19 -9 -19 -9 7 -1 26 -2 27 -60 27 -84 0
-115 -13 -108 -46 4 -23 3 -24 -10 -11 -19 18 -3 54 30 67 25 10 187 8 187 -2z
m-590 -27 c0 -9 -24 -21 -43 -21 -6 0 -2 7 9 15 22 17 34 19 34 6z m499 -4
c-9 -7 -31 -35 -48 -62 -22 -35 -28 -51 -19 -56 9 -6 8 -10 -5 -15 -10 -3 -20
-4 -22 -2 -3 2 11 37 30 76 28 59 38 72 57 72 20 -1 21 -2 7 -13z m387 -2
c-11 -8 -25 -15 -30 -15 -6 0 -2 7 8 15 11 8 25 15 30 15 6 0 2 -7 -8 -15z
m-1146 -4 c0 -6 -5 -13 -12 -17 -8 -5 -6 -10 8 -15 17 -6 16 -7 -8 -14 -17 -4
-30 -17 -37 -36 -14 -41 3 -38 56 12 46 42 68 46 68 13 0 -13 -10 -22 -32 -29
-30 -8 -47 -35 -23 -35 28 0 62 28 81 67 11 23 23 43 25 43 2 0 13 -8 24 -17
19 -17 19 -17 -2 -50 -37 -61 0 -47 45 17 19 28 34 21 18 -8 -6 -12 -11 -29
-11 -38 0 -14 8 -10 38 18 82 78 130 76 97 -4 -9 -23 12 -24 39 -1 15 13 14
10 -3 -10 -27 -30 -49 -35 -57 -12 -5 12 -9 12 -28 0 -13 -9 -26 -11 -36 -5
-8 5 -22 4 -34 -2 -15 -8 -22 -7 -31 5 -9 13 -13 13 -30 1 -10 -8 -23 -14 -27
-14 -18 0 -20 32 -3 50 10 11 15 23 12 27 -4 3 -24 -12 -45 -35 -41 -45 -83
-56 -100 -26 -8 14 -10 14 -21 0 -30 -36 -61 3 -38 47 34 62 67 96 67 68z
m886 -8 c-4 -9 -1 -20 6 -24 9 -5 4 -11 -14 -18 -15 -6 -28 -20 -32 -36 -10
-38 -3 -40 25 -10 38 40 89 69 101 57 15 -15 1 -32 -40 -49 -25 -10 -32 -17
-24 -25 16 -16 54 3 81 41 13 17 19 31 15 31 -3 0 -1 7 6 15 14 17 35 21 25 5
-3 -5 1 -10 9 -10 20 0 20 -19 1 -44 -33 -43 -13 -50 24 -8 46 50 58 54 36 11
-25 -47 -12 -56 26 -20 79 77 116 80 104 8 l-7 -42 26 24 c14 14 26 19 26 13
0 -16 -47 -45 -60 -37 -5 3 -10 13 -10 22 0 15 -2 14 -18 0 -10 -10 -22 -17
-27 -17 -5 0 9 16 31 35 29 25 34 34 21 35 -19 0 -67 -42 -67 -60 0 -6 -4 -9
-10 -5 -5 3 -19 0 -30 -7 -18 -11 -23 -10 -34 5 -12 15 -15 15 -26 2 -32 -39
-54 0 -24 43 26 37 -4 25 -45 -18 -38 -40 -67 -50 -88 -29 -8 8 -17 7 -34 -1
-18 -10 -24 -10 -34 3 -9 13 -13 13 -30 1 -36 -27 -77 -10 -68 27 7 26 71 65
85 51 15 -15 1 -32 -39 -48 -32 -14 -37 -34 -8 -34 19 0 66 41 68 61 2 9 10
24 20 33 9 10 17 22 17 27 0 5 5 9 11 9 6 0 8 -7 5 -17z m-341 -69 c-7 -18
-12 -34 -10 -34 4 0 -26 -50 -60 -97 -19 -27 -55 -31 -55 -6 0 9 23 38 51 64
37 34 50 52 45 65 -7 18 21 57 35 48 5 -3 2 -21 -6 -40z m-55 27 c0 -5 -7 -14
-15 -21 -15 -13 -21 -40 -8 -40 3 0 15 7 25 17 10 9 18 12 18 7 0 -17 -23 -34
-47 -34 -27 0 -31 25 -7 58 15 22 34 29 34 13z m80 -41 c-6 -11 -16 -20 -22
-20 -6 0 -3 9 7 20 10 11 20 20 22 20 2 0 -1 -9 -7 -20z"/>
<path d="M563 1309 c-48 -24 -99 -77 -119 -125 -18 -43 -19 -163 -2 -146 7 7
18 12 25 12 7 0 22 9 32 19 12 12 41 21 80 26 57 7 61 8 55 30 -13 53 38 89
83 60 21 -14 24 -22 20 -50 l-5 -33 60 -7 c38 -5 67 -14 79 -26 10 -10 25 -19
32 -19 7 0 18 -5 25 -12 21 -21 15 110 -7 157 -23 49 -74 99 -123 119 -57 24
-182 21 -235 -5z"/>
<path d="M667 1164 c-4 -4 -4 -31 -1 -61 7 -52 0 -65 -23 -42 -13 13 -123 3
-123 -10 0 -18 172 -27 278 -15 28 4 52 10 52 15 0 13 -114 23 -118 10 -2 -6
-10 -11 -19 -11 -12 0 -14 11 -11 57 2 46 0 58 -12 61 -9 1 -19 0 -23 -4z"/>
<path d="M489 988 c-22 -30 -64 -128 -83 -193 -25 -82 21 -143 122 -164 73
-15 255 -14 325 3 67 16 103 45 116 94 8 27 5 47 -16 105 -29 81 -59 144 -79
167 -11 13 -27 14 -105 7 -54 -6 -125 -6 -176 0 l-85 9 -19 -28z"/>
<path d="M302 960 c19 -26 22 -43 23 -124 0 -78 3 -97 19 -115 27 -30 32 -26
28 18 -2 24 4 62 17 96 27 72 27 78 -10 120 -24 27 -39 35 -65 35 l-35 0 23
-30z"/>
<path d="M590 325 c-35 -37 -14 -44 23 -7 22 22 27 32 16 32 -9 0 -26 -11 -39
-25z"/>
<path d="M819 333 c-13 -15 -12 -15 9 -4 23 12 28 21 13 21 -5 0 -15 -7 -22
-17z"/>
<path d="M979 333 c-13 -15 -12 -15 9 -4 23 12 28 21 13 21 -5 0 -15 -7 -22
-17z"/>
<path d="M1220 325 c-35 -37 -14 -44 23 -7 22 22 27 32 16 32 -9 0 -26 -11
-39 -25z"/>
<path d="M1710 335 c-7 -8 -8 -15 -2 -15 5 0 15 7 22 15 7 8 8 15 2 15 -5 0
-15 -7 -22 -15z"/>
<path d="M1870 335 c-7 -8 -8 -15 -2 -15 5 0 15 7 22 15 7 8 8 15 2 15 -5 0
-15 -7 -22 -15z"/>
<path d="M1392 217 c-24 -25 -28 -37 -12 -37 11 0 45 48 38 55 -2 3 -14 -5
-26 -18z"/>
</g>
</svg>
